# xmcd
#
# Track frame offsets: 
#        150
#        21569
#        36295
#        56683
#        72685
#        88997
#        113372
#        133490
#        150466
#        170832
#        190285
#        208583
#        226995
#        246380
#        269894
#        287482
#
# Disc length: 4037 seconds
#
# Revision: 0
# Processed by: cddbd v1.5.2PL0 Copyright (c) Steve Scherf et al.
# Submitted via: ExactAudioCopy v1.0b3
#
DISCID=000fc310
DTITLE=The Burnes - Retros and Demos
DYEAR=2006
DGENRE=Blues
TTITLE0=1999
TTITLE1=Reggea All Night Long
TTITLE2=Give It Up
TTITLE3=Look Around
TTITLE4=Tell Me Why
TTITLE5=It´s Over Now
TTITLE6=Another Lon´ly Day
TTITLE7=I´ve Got A Dream
TTITLE8=Cure Without You
TTITLE9=What A Day
TTITLE10=So Far Away
TTITLE11=Rockin´ Down The Street
TTITLE12=Ol´ Time Religion
TTITLE13=Mysterious Niteshade
TTITLE14=I Will Go
TTITLE15=Don´t Look Back
EXTD=
EXTT0=
EXTT1=
EXTT2=
EXTT3=
EXTT4=
EXTT5=
EXTT6=
EXTT7=
EXTT8=
EXTT9=
EXTT10=
EXTT11=
EXTT12=
EXTT13=
EXTT14=
EXTT15=
PLAYORDER=
